<mxfile host="Electron" modified="2023-11-14T06:27:44.071Z" agent="Mozilla/5.0 (Windows NT 10.0; Win64; x64) AppleWebKit/537.36 (KHTML, like Gecko) draw.io/21.6.8 Chrome/114.0.5735.289 Electron/25.5.0 Safari/537.36" etag="SZHYeKFYp6Cw1s73wlKs" version="21.6.8" type="device">
  <diagram name="Page-1" id="UBFzrmvrQRGjzXdU3hLL">
    <mxGraphModel dx="1036" dy="606" grid="1" gridSize="10" guides="1" tooltips="1" connect="1" arrows="1" fold="1" page="1" pageScale="1" pageWidth="827" pageHeight="1169" math="0" shadow="0">
      <root>
        <mxCell id="0" />
        <mxCell id="1" parent="0" />
        <mxCell id="2It3yzgbb8QDD4uzAi2m-1" value="" style="swimlane;startSize=0;fontStyle=0" vertex="1" parent="1">
          <mxGeometry x="350" y="280" width="940" height="370" as="geometry" />
        </mxCell>
        <mxCell id="2It3yzgbb8QDD4uzAi2m-2" value="&lt;font style=&quot;font-size: 18px;&quot;&gt;Question&lt;/font&gt;" style="text;html=1;strokeColor=none;fillColor=none;align=center;verticalAlign=middle;whiteSpace=wrap;rounded=0;labelBorderColor=none;fontStyle=1" vertex="1" parent="2It3yzgbb8QDD4uzAi2m-1">
          <mxGeometry x="460" width="80" height="40" as="geometry" />
        </mxCell>
        <mxCell id="2It3yzgbb8QDD4uzAi2m-3" value="QuestionRouter" style="swimlane;fontStyle=0;childLayout=stackLayout;horizontal=1;startSize=30;horizontalStack=0;resizeParent=1;resizeParentMax=0;resizeLast=0;collapsible=1;marginBottom=0;whiteSpace=wrap;html=1;" vertex="1" parent="2It3yzgbb8QDD4uzAi2m-1">
          <mxGeometry x="40" y="130" width="140" height="210" as="geometry" />
        </mxCell>
        <mxCell id="2It3yzgbb8QDD4uzAi2m-4" value="GET /" style="text;strokeColor=none;fillColor=none;align=left;verticalAlign=middle;spacingLeft=4;spacingRight=4;overflow=hidden;points=[[0,0.5],[1,0.5]];portConstraint=eastwest;rotatable=0;whiteSpace=wrap;html=1;" vertex="1" parent="2It3yzgbb8QDD4uzAi2m-3">
          <mxGeometry y="30" width="140" height="30" as="geometry" />
        </mxCell>
        <mxCell id="2It3yzgbb8QDD4uzAi2m-5" value="GET /leetcode" style="text;strokeColor=none;fillColor=none;align=left;verticalAlign=middle;spacingLeft=4;spacingRight=4;overflow=hidden;points=[[0,0.5],[1,0.5]];portConstraint=eastwest;rotatable=0;whiteSpace=wrap;html=1;" vertex="1" parent="2It3yzgbb8QDD4uzAi2m-3">
          <mxGeometry y="60" width="140" height="30" as="geometry" />
        </mxCell>
        <mxCell id="2It3yzgbb8QDD4uzAi2m-6" value="GET /:id" style="text;strokeColor=none;fillColor=none;align=left;verticalAlign=middle;spacingLeft=4;spacingRight=4;overflow=hidden;points=[[0,0.5],[1,0.5]];portConstraint=eastwest;rotatable=0;whiteSpace=wrap;html=1;" vertex="1" parent="2It3yzgbb8QDD4uzAi2m-3">
          <mxGeometry y="90" width="140" height="30" as="geometry" />
        </mxCell>
        <mxCell id="2It3yzgbb8QDD4uzAi2m-70" value="DELETE /:id" style="text;strokeColor=none;fillColor=none;align=left;verticalAlign=middle;spacingLeft=4;spacingRight=4;overflow=hidden;points=[[0,0.5],[1,0.5]];portConstraint=eastwest;rotatable=0;whiteSpace=wrap;html=1;" vertex="1" parent="2It3yzgbb8QDD4uzAi2m-3">
          <mxGeometry y="120" width="140" height="30" as="geometry" />
        </mxCell>
        <mxCell id="2It3yzgbb8QDD4uzAi2m-71" value="ADD /" style="text;strokeColor=none;fillColor=none;align=left;verticalAlign=middle;spacingLeft=4;spacingRight=4;overflow=hidden;points=[[0,0.5],[1,0.5]];portConstraint=eastwest;rotatable=0;whiteSpace=wrap;html=1;" vertex="1" parent="2It3yzgbb8QDD4uzAi2m-3">
          <mxGeometry y="150" width="140" height="30" as="geometry" />
        </mxCell>
        <mxCell id="2It3yzgbb8QDD4uzAi2m-72" value="PUT /:id" style="text;strokeColor=none;fillColor=none;align=left;verticalAlign=middle;spacingLeft=4;spacingRight=4;overflow=hidden;points=[[0,0.5],[1,0.5]];portConstraint=eastwest;rotatable=0;whiteSpace=wrap;html=1;" vertex="1" parent="2It3yzgbb8QDD4uzAi2m-3">
          <mxGeometry y="180" width="140" height="30" as="geometry" />
        </mxCell>
        <mxCell id="2It3yzgbb8QDD4uzAi2m-7" value="Routes" style="text;html=1;strokeColor=none;fillColor=none;align=center;verticalAlign=middle;whiteSpace=wrap;rounded=0;fontSize=20;" vertex="1" parent="2It3yzgbb8QDD4uzAi2m-1">
          <mxGeometry x="80" y="90" width="60" height="30" as="geometry" />
        </mxCell>
        <mxCell id="2It3yzgbb8QDD4uzAi2m-8" value="Controllers" style="text;html=1;strokeColor=none;fillColor=none;align=center;verticalAlign=middle;whiteSpace=wrap;rounded=0;fontSize=20;" vertex="1" parent="2It3yzgbb8QDD4uzAi2m-1">
          <mxGeometry x="485" y="80" width="60" height="30" as="geometry" />
        </mxCell>
        <mxCell id="2It3yzgbb8QDD4uzAi2m-10" value="SessionController" style="swimlane;fontStyle=0;childLayout=stackLayout;horizontal=1;startSize=30;horizontalStack=0;resizeParent=1;resizeParentMax=0;resizeLast=0;collapsible=1;marginBottom=0;whiteSpace=wrap;html=1;" vertex="1" parent="2It3yzgbb8QDD4uzAi2m-1">
          <mxGeometry x="430" y="130" width="170" height="210" as="geometry" />
        </mxCell>
        <mxCell id="2It3yzgbb8QDD4uzAi2m-11" value="getAllQuestionsHandler" style="text;strokeColor=none;fillColor=none;align=left;verticalAlign=middle;spacingLeft=4;spacingRight=4;overflow=hidden;points=[[0,0.5],[1,0.5]];portConstraint=eastwest;rotatable=0;whiteSpace=wrap;html=1;" vertex="1" parent="2It3yzgbb8QDD4uzAi2m-10">
          <mxGeometry y="30" width="170" height="30" as="geometry" />
        </mxCell>
        <mxCell id="2It3yzgbb8QDD4uzAi2m-12" value="leetcodeFetchHandler" style="text;strokeColor=none;fillColor=none;align=left;verticalAlign=middle;spacingLeft=4;spacingRight=4;overflow=hidden;points=[[0,0.5],[1,0.5]];portConstraint=eastwest;rotatable=0;whiteSpace=wrap;html=1;" vertex="1" parent="2It3yzgbb8QDD4uzAi2m-10">
          <mxGeometry y="60" width="170" height="30" as="geometry" />
        </mxCell>
        <mxCell id="2It3yzgbb8QDD4uzAi2m-13" value="getQuestionHandler" style="text;strokeColor=none;fillColor=none;align=left;verticalAlign=middle;spacingLeft=4;spacingRight=4;overflow=hidden;points=[[0,0.5],[1,0.5]];portConstraint=eastwest;rotatable=0;whiteSpace=wrap;html=1;" vertex="1" parent="2It3yzgbb8QDD4uzAi2m-10">
          <mxGeometry y="90" width="170" height="30" as="geometry" />
        </mxCell>
        <mxCell id="2It3yzgbb8QDD4uzAi2m-87" value="deleteQuestionHandler" style="text;strokeColor=none;fillColor=none;align=left;verticalAlign=middle;spacingLeft=4;spacingRight=4;overflow=hidden;points=[[0,0.5],[1,0.5]];portConstraint=eastwest;rotatable=0;whiteSpace=wrap;html=1;" vertex="1" parent="2It3yzgbb8QDD4uzAi2m-10">
          <mxGeometry y="120" width="170" height="30" as="geometry" />
        </mxCell>
        <mxCell id="2It3yzgbb8QDD4uzAi2m-88" value="addQuestionHandler" style="text;strokeColor=none;fillColor=none;align=left;verticalAlign=middle;spacingLeft=4;spacingRight=4;overflow=hidden;points=[[0,0.5],[1,0.5]];portConstraint=eastwest;rotatable=0;whiteSpace=wrap;html=1;" vertex="1" parent="2It3yzgbb8QDD4uzAi2m-10">
          <mxGeometry y="150" width="170" height="30" as="geometry" />
        </mxCell>
        <mxCell id="2It3yzgbb8QDD4uzAi2m-89" value="updateQuestionHandler" style="text;strokeColor=none;fillColor=none;align=left;verticalAlign=middle;spacingLeft=4;spacingRight=4;overflow=hidden;points=[[0,0.5],[1,0.5]];portConstraint=eastwest;rotatable=0;whiteSpace=wrap;html=1;" vertex="1" parent="2It3yzgbb8QDD4uzAi2m-10">
          <mxGeometry y="180" width="170" height="30" as="geometry" />
        </mxCell>
        <mxCell id="2It3yzgbb8QDD4uzAi2m-26" value="Guards" style="text;html=1;strokeColor=none;fillColor=none;align=center;verticalAlign=middle;whiteSpace=wrap;rounded=0;fontSize=20;" vertex="1" parent="2It3yzgbb8QDD4uzAi2m-1">
          <mxGeometry x="281" y="90" width="60" height="30" as="geometry" />
        </mxCell>
        <mxCell id="2It3yzgbb8QDD4uzAi2m-27" style="edgeStyle=orthogonalEdgeStyle;rounded=0;orthogonalLoop=1;jettySize=auto;html=1;entryX=0;entryY=0.5;entryDx=0;entryDy=0;" edge="1" parent="2It3yzgbb8QDD4uzAi2m-1" source="2It3yzgbb8QDD4uzAi2m-28" target="2It3yzgbb8QDD4uzAi2m-11">
          <mxGeometry relative="1" as="geometry">
            <mxPoint x="296" y="175" as="targetPoint" />
          </mxGeometry>
        </mxCell>
        <mxCell id="2It3yzgbb8QDD4uzAi2m-28" value="JwtGuard" style="rounded=0;whiteSpace=wrap;html=1;" vertex="1" parent="2It3yzgbb8QDD4uzAi2m-1">
          <mxGeometry x="276" y="160" width="70" height="30" as="geometry" />
        </mxCell>
        <mxCell id="2It3yzgbb8QDD4uzAi2m-31" style="edgeStyle=orthogonalEdgeStyle;rounded=0;orthogonalLoop=1;jettySize=auto;html=1;entryX=0;entryY=0.5;entryDx=0;entryDy=0;" edge="1" parent="2It3yzgbb8QDD4uzAi2m-1" source="2It3yzgbb8QDD4uzAi2m-4" target="2It3yzgbb8QDD4uzAi2m-28">
          <mxGeometry relative="1" as="geometry" />
        </mxCell>
        <mxCell id="2It3yzgbb8QDD4uzAi2m-33" style="edgeStyle=orthogonalEdgeStyle;rounded=0;orthogonalLoop=1;jettySize=auto;html=1;" edge="1" parent="2It3yzgbb8QDD4uzAi2m-1" source="2It3yzgbb8QDD4uzAi2m-34" target="2It3yzgbb8QDD4uzAi2m-13">
          <mxGeometry relative="1" as="geometry">
            <mxPoint x="296" y="245" as="targetPoint" />
          </mxGeometry>
        </mxCell>
        <mxCell id="2It3yzgbb8QDD4uzAi2m-34" value="JwtGuard" style="rounded=0;whiteSpace=wrap;html=1;" vertex="1" parent="2It3yzgbb8QDD4uzAi2m-1">
          <mxGeometry x="276" y="220" width="70" height="30" as="geometry" />
        </mxCell>
        <mxCell id="2It3yzgbb8QDD4uzAi2m-37" style="edgeStyle=orthogonalEdgeStyle;rounded=0;orthogonalLoop=1;jettySize=auto;html=1;entryX=0;entryY=0.5;entryDx=0;entryDy=0;" edge="1" parent="2It3yzgbb8QDD4uzAi2m-1" source="2It3yzgbb8QDD4uzAi2m-6" target="2It3yzgbb8QDD4uzAi2m-34">
          <mxGeometry relative="1" as="geometry" />
        </mxCell>
        <mxCell id="2It3yzgbb8QDD4uzAi2m-75" style="edgeStyle=orthogonalEdgeStyle;rounded=0;orthogonalLoop=1;jettySize=auto;html=1;entryX=0;entryY=0.5;entryDx=0;entryDy=0;" edge="1" parent="2It3yzgbb8QDD4uzAi2m-1" source="2It3yzgbb8QDD4uzAi2m-73" target="2It3yzgbb8QDD4uzAi2m-12">
          <mxGeometry relative="1" as="geometry" />
        </mxCell>
        <mxCell id="2It3yzgbb8QDD4uzAi2m-73" value="JwtGuard" style="rounded=0;whiteSpace=wrap;html=1;" vertex="1" parent="2It3yzgbb8QDD4uzAi2m-1">
          <mxGeometry x="276" y="190" width="70" height="30" as="geometry" />
        </mxCell>
        <mxCell id="2It3yzgbb8QDD4uzAi2m-74" style="edgeStyle=orthogonalEdgeStyle;rounded=0;orthogonalLoop=1;jettySize=auto;html=1;" edge="1" parent="2It3yzgbb8QDD4uzAi2m-1" source="2It3yzgbb8QDD4uzAi2m-5" target="2It3yzgbb8QDD4uzAi2m-73">
          <mxGeometry relative="1" as="geometry" />
        </mxCell>
        <mxCell id="2It3yzgbb8QDD4uzAi2m-90" style="edgeStyle=orthogonalEdgeStyle;rounded=0;orthogonalLoop=1;jettySize=auto;html=1;entryX=0;entryY=0.5;entryDx=0;entryDy=0;" edge="1" parent="2It3yzgbb8QDD4uzAi2m-1" source="2It3yzgbb8QDD4uzAi2m-80" target="2It3yzgbb8QDD4uzAi2m-87">
          <mxGeometry relative="1" as="geometry" />
        </mxCell>
        <mxCell id="2It3yzgbb8QDD4uzAi2m-80" value="JwtGuard" style="rounded=0;whiteSpace=wrap;html=1;" vertex="1" parent="2It3yzgbb8QDD4uzAi2m-1">
          <mxGeometry x="276" y="250" width="70" height="30" as="geometry" />
        </mxCell>
        <mxCell id="2It3yzgbb8QDD4uzAi2m-91" style="edgeStyle=orthogonalEdgeStyle;rounded=0;orthogonalLoop=1;jettySize=auto;html=1;entryX=0;entryY=0.5;entryDx=0;entryDy=0;" edge="1" parent="2It3yzgbb8QDD4uzAi2m-1" source="2It3yzgbb8QDD4uzAi2m-81" target="2It3yzgbb8QDD4uzAi2m-88">
          <mxGeometry relative="1" as="geometry" />
        </mxCell>
        <mxCell id="2It3yzgbb8QDD4uzAi2m-81" value="JwtGuard" style="rounded=0;whiteSpace=wrap;html=1;" vertex="1" parent="2It3yzgbb8QDD4uzAi2m-1">
          <mxGeometry x="276" y="280" width="70" height="30" as="geometry" />
        </mxCell>
        <mxCell id="2It3yzgbb8QDD4uzAi2m-92" style="edgeStyle=orthogonalEdgeStyle;rounded=0;orthogonalLoop=1;jettySize=auto;html=1;entryX=0;entryY=0.5;entryDx=0;entryDy=0;" edge="1" parent="2It3yzgbb8QDD4uzAi2m-1" source="2It3yzgbb8QDD4uzAi2m-82" target="2It3yzgbb8QDD4uzAi2m-89">
          <mxGeometry relative="1" as="geometry" />
        </mxCell>
        <mxCell id="2It3yzgbb8QDD4uzAi2m-82" value="JwtGuard" style="rounded=0;whiteSpace=wrap;html=1;" vertex="1" parent="2It3yzgbb8QDD4uzAi2m-1">
          <mxGeometry x="276" y="310" width="70" height="30" as="geometry" />
        </mxCell>
        <mxCell id="2It3yzgbb8QDD4uzAi2m-83" value="" style="edgeStyle=orthogonalEdgeStyle;rounded=0;orthogonalLoop=1;jettySize=auto;html=1;entryX=0;entryY=0.5;entryDx=0;entryDy=0;" edge="1" parent="2It3yzgbb8QDD4uzAi2m-1" source="2It3yzgbb8QDD4uzAi2m-70" target="2It3yzgbb8QDD4uzAi2m-80">
          <mxGeometry relative="1" as="geometry" />
        </mxCell>
        <mxCell id="2It3yzgbb8QDD4uzAi2m-84" value="" style="edgeStyle=orthogonalEdgeStyle;rounded=0;orthogonalLoop=1;jettySize=auto;html=1;entryX=0;entryY=0.5;entryDx=0;entryDy=0;" edge="1" parent="2It3yzgbb8QDD4uzAi2m-1" source="2It3yzgbb8QDD4uzAi2m-71" target="2It3yzgbb8QDD4uzAi2m-81">
          <mxGeometry relative="1" as="geometry" />
        </mxCell>
        <mxCell id="2It3yzgbb8QDD4uzAi2m-86" style="edgeStyle=orthogonalEdgeStyle;rounded=0;orthogonalLoop=1;jettySize=auto;html=1;entryX=0;entryY=0.5;entryDx=0;entryDy=0;" edge="1" parent="2It3yzgbb8QDD4uzAi2m-1" source="2It3yzgbb8QDD4uzAi2m-72" target="2It3yzgbb8QDD4uzAi2m-82">
          <mxGeometry relative="1" as="geometry" />
        </mxCell>
        <mxCell id="2It3yzgbb8QDD4uzAi2m-57" value="" style="shape=datastore;whiteSpace=wrap;html=1;movable=1;resizable=1;rotatable=1;deletable=1;editable=1;locked=0;connectable=1;" vertex="1" parent="2It3yzgbb8QDD4uzAi2m-1">
          <mxGeometry x="860" y="210" width="60" height="80" as="geometry" />
        </mxCell>
        <mxCell id="2It3yzgbb8QDD4uzAi2m-58" value="" style="shape=image;imageAspect=0;aspect=fixed;verticalLabelPosition=bottom;verticalAlign=top;image=https://www.strongdm.com/hubfs/21126185/Technology%20Images/603c5eb831820c3ce6a8f057_603a1586fa052d17fc2a6929_MongoDBAtlas.png;movable=1;resizable=1;rotatable=1;deletable=1;editable=1;locked=0;connectable=1;" vertex="1" parent="2It3yzgbb8QDD4uzAi2m-1">
          <mxGeometry x="871" y="240" width="40" height="40" as="geometry" />
        </mxCell>
        <mxCell id="2It3yzgbb8QDD4uzAi2m-100" style="edgeStyle=orthogonalEdgeStyle;rounded=0;orthogonalLoop=1;jettySize=auto;html=1;entryX=0;entryY=0.5;entryDx=0;entryDy=0;" edge="1" parent="2It3yzgbb8QDD4uzAi2m-1" source="2It3yzgbb8QDD4uzAi2m-88" target="2It3yzgbb8QDD4uzAi2m-102">
          <mxGeometry relative="1" as="geometry" />
        </mxCell>
        <mxCell id="2It3yzgbb8QDD4uzAi2m-107" style="edgeStyle=orthogonalEdgeStyle;rounded=0;orthogonalLoop=1;jettySize=auto;html=1;entryX=0;entryY=0.5;entryDx=0;entryDy=0;" edge="1" parent="2It3yzgbb8QDD4uzAi2m-1" source="2It3yzgbb8QDD4uzAi2m-11" target="2It3yzgbb8QDD4uzAi2m-102">
          <mxGeometry relative="1" as="geometry" />
        </mxCell>
        <mxCell id="2It3yzgbb8QDD4uzAi2m-108" style="edgeStyle=orthogonalEdgeStyle;rounded=0;orthogonalLoop=1;jettySize=auto;html=1;entryX=0;entryY=0.5;entryDx=0;entryDy=0;" edge="1" parent="2It3yzgbb8QDD4uzAi2m-1" source="2It3yzgbb8QDD4uzAi2m-12" target="2It3yzgbb8QDD4uzAi2m-102">
          <mxGeometry relative="1" as="geometry" />
        </mxCell>
        <mxCell id="2It3yzgbb8QDD4uzAi2m-109" style="edgeStyle=orthogonalEdgeStyle;rounded=0;orthogonalLoop=1;jettySize=auto;html=1;entryX=0;entryY=0.5;entryDx=0;entryDy=0;" edge="1" parent="2It3yzgbb8QDD4uzAi2m-1" source="2It3yzgbb8QDD4uzAi2m-13" target="2It3yzgbb8QDD4uzAi2m-102">
          <mxGeometry relative="1" as="geometry" />
        </mxCell>
        <mxCell id="2It3yzgbb8QDD4uzAi2m-104" value="" style="group" vertex="1" connectable="0" parent="2It3yzgbb8QDD4uzAi2m-1">
          <mxGeometry x="680" y="220" width="120" height="60" as="geometry" />
        </mxCell>
        <mxCell id="2It3yzgbb8QDD4uzAi2m-105" value="" style="group" vertex="1" connectable="0" parent="2It3yzgbb8QDD4uzAi2m-104">
          <mxGeometry width="120" height="60" as="geometry" />
        </mxCell>
        <mxCell id="2It3yzgbb8QDD4uzAi2m-102" value="Mongoose" style="rounded=1;whiteSpace=wrap;html=1;" vertex="1" parent="2It3yzgbb8QDD4uzAi2m-105">
          <mxGeometry width="120" height="60" as="geometry" />
        </mxCell>
        <mxCell id="2It3yzgbb8QDD4uzAi2m-103" value="" style="shape=image;imageAspect=0;aspect=fixed;verticalLabelPosition=bottom;verticalAlign=top;image=https://mongoosejs.com/docs/images/mongoose5_62x30_transparent.png;" vertex="1" parent="2It3yzgbb8QDD4uzAi2m-105">
          <mxGeometry x="34.5" y="35.32" width="51" height="24.68" as="geometry" />
        </mxCell>
        <mxCell id="2It3yzgbb8QDD4uzAi2m-110" style="edgeStyle=orthogonalEdgeStyle;rounded=0;orthogonalLoop=1;jettySize=auto;html=1;entryX=0;entryY=0.5;entryDx=0;entryDy=0;" edge="1" parent="2It3yzgbb8QDD4uzAi2m-1" source="2It3yzgbb8QDD4uzAi2m-87" target="2It3yzgbb8QDD4uzAi2m-102">
          <mxGeometry relative="1" as="geometry" />
        </mxCell>
        <mxCell id="2It3yzgbb8QDD4uzAi2m-111" style="edgeStyle=orthogonalEdgeStyle;rounded=0;orthogonalLoop=1;jettySize=auto;html=1;entryX=0;entryY=0.5;entryDx=0;entryDy=0;" edge="1" parent="2It3yzgbb8QDD4uzAi2m-1" source="2It3yzgbb8QDD4uzAi2m-89" target="2It3yzgbb8QDD4uzAi2m-102">
          <mxGeometry relative="1" as="geometry" />
        </mxCell>
        <mxCell id="2It3yzgbb8QDD4uzAi2m-112" value="" style="endArrow=none;dashed=1;html=1;rounded=0;entryX=0;entryY=0.5;entryDx=0;entryDy=0;exitX=1;exitY=0.5;exitDx=0;exitDy=0;" edge="1" parent="2It3yzgbb8QDD4uzAi2m-1" source="2It3yzgbb8QDD4uzAi2m-102" target="2It3yzgbb8QDD4uzAi2m-57">
          <mxGeometry width="50" height="50" relative="1" as="geometry">
            <mxPoint x="770" y="260" as="sourcePoint" />
            <mxPoint x="820" y="210" as="targetPoint" />
          </mxGeometry>
        </mxCell>
        <mxCell id="2It3yzgbb8QDD4uzAi2m-65" style="edgeStyle=orthogonalEdgeStyle;rounded=0;orthogonalLoop=1;jettySize=auto;html=1;entryX=0;entryY=0.5;entryDx=0;entryDy=0;exitX=1;exitY=0.5;exitDx=0;exitDy=0;" edge="1" parent="1" source="2It3yzgbb8QDD4uzAi2m-50" target="2It3yzgbb8QDD4uzAi2m-4">
          <mxGeometry relative="1" as="geometry">
            <mxPoint x="200" y="455" as="targetPoint" />
          </mxGeometry>
        </mxCell>
        <mxCell id="2It3yzgbb8QDD4uzAi2m-121" value="get all questions" style="edgeLabel;html=1;align=center;verticalAlign=middle;resizable=0;points=[];" vertex="1" connectable="0" parent="2It3yzgbb8QDD4uzAi2m-65">
          <mxGeometry x="0.6296" relative="1" as="geometry">
            <mxPoint as="offset" />
          </mxGeometry>
        </mxCell>
        <mxCell id="2It3yzgbb8QDD4uzAi2m-113" style="edgeStyle=orthogonalEdgeStyle;rounded=0;orthogonalLoop=1;jettySize=auto;html=1;entryX=0;entryY=0.5;entryDx=0;entryDy=0;" edge="1" parent="1" source="2It3yzgbb8QDD4uzAi2m-50" target="2It3yzgbb8QDD4uzAi2m-5">
          <mxGeometry relative="1" as="geometry" />
        </mxCell>
        <mxCell id="2It3yzgbb8QDD4uzAi2m-122" value="fetch leetcode questions" style="edgeLabel;html=1;align=center;verticalAlign=middle;resizable=0;points=[];fontSize=8;" vertex="1" connectable="0" parent="2It3yzgbb8QDD4uzAi2m-113">
          <mxGeometry x="0.3769" y="2" relative="1" as="geometry">
            <mxPoint x="19" y="2" as="offset" />
          </mxGeometry>
        </mxCell>
        <mxCell id="2It3yzgbb8QDD4uzAi2m-114" style="edgeStyle=orthogonalEdgeStyle;rounded=0;orthogonalLoop=1;jettySize=auto;html=1;entryX=0;entryY=0.5;entryDx=0;entryDy=0;" edge="1" parent="1" source="2It3yzgbb8QDD4uzAi2m-50" target="2It3yzgbb8QDD4uzAi2m-6">
          <mxGeometry relative="1" as="geometry" />
        </mxCell>
        <mxCell id="2It3yzgbb8QDD4uzAi2m-123" value="get a question" style="edgeLabel;html=1;align=center;verticalAlign=middle;resizable=0;points=[];fontSize=9;" vertex="1" connectable="0" parent="2It3yzgbb8QDD4uzAi2m-114">
          <mxGeometry x="0.4519" y="-1" relative="1" as="geometry">
            <mxPoint x="2" y="-1" as="offset" />
          </mxGeometry>
        </mxCell>
        <mxCell id="2It3yzgbb8QDD4uzAi2m-115" style="edgeStyle=orthogonalEdgeStyle;rounded=0;orthogonalLoop=1;jettySize=auto;html=1;entryX=0;entryY=0.5;entryDx=0;entryDy=0;" edge="1" parent="1" source="2It3yzgbb8QDD4uzAi2m-50" target="2It3yzgbb8QDD4uzAi2m-70">
          <mxGeometry relative="1" as="geometry" />
        </mxCell>
        <mxCell id="2It3yzgbb8QDD4uzAi2m-116" style="edgeStyle=orthogonalEdgeStyle;rounded=0;orthogonalLoop=1;jettySize=auto;html=1;entryX=0;entryY=0.5;entryDx=0;entryDy=0;exitX=1;exitY=0.5;exitDx=0;exitDy=0;" edge="1" parent="1" source="2It3yzgbb8QDD4uzAi2m-50" target="2It3yzgbb8QDD4uzAi2m-71">
          <mxGeometry relative="1" as="geometry" />
        </mxCell>
        <mxCell id="2It3yzgbb8QDD4uzAi2m-117" style="edgeStyle=orthogonalEdgeStyle;rounded=0;orthogonalLoop=1;jettySize=auto;html=1;entryX=0;entryY=0.5;entryDx=0;entryDy=0;exitX=1;exitY=0.5;exitDx=0;exitDy=0;" edge="1" parent="1" source="2It3yzgbb8QDD4uzAi2m-50" target="2It3yzgbb8QDD4uzAi2m-72">
          <mxGeometry relative="1" as="geometry" />
        </mxCell>
        <mxCell id="2It3yzgbb8QDD4uzAi2m-118" value="calls /api/question" style="edgeLabel;html=1;align=center;verticalAlign=middle;resizable=0;points=[];" vertex="1" connectable="0" parent="2It3yzgbb8QDD4uzAi2m-117">
          <mxGeometry x="-0.653" y="-1" relative="1" as="geometry">
            <mxPoint x="-1" as="offset" />
          </mxGeometry>
        </mxCell>
        <mxCell id="2It3yzgbb8QDD4uzAi2m-50" value="Frontend" style="rounded=1;whiteSpace=wrap;html=1;" vertex="1" parent="1">
          <mxGeometry x="60" y="500" width="120" height="60" as="geometry" />
        </mxCell>
        <mxCell id="2It3yzgbb8QDD4uzAi2m-125" value="delete a question" style="edgeLabel;html=1;align=center;verticalAlign=middle;resizable=0;points=[];fontSize=9;" vertex="1" connectable="0" parent="1">
          <mxGeometry x="329.9998850574714" y="540.0000000000001" as="geometry" />
        </mxCell>
        <mxCell id="2It3yzgbb8QDD4uzAi2m-126" value="add a question" style="edgeLabel;html=1;align=center;verticalAlign=middle;resizable=0;points=[];fontSize=9;" vertex="1" connectable="0" parent="1">
          <mxGeometry x="329.9998850574714" y="570.0000000000001" as="geometry" />
        </mxCell>
        <mxCell id="2It3yzgbb8QDD4uzAi2m-127" value="update a question" style="edgeLabel;html=1;align=center;verticalAlign=middle;resizable=0;points=[];fontSize=9;" vertex="1" connectable="0" parent="1">
          <mxGeometry x="329.9998850574714" y="600.0000000000001" as="geometry" />
        </mxCell>
      </root>
    </mxGraphModel>
  </diagram>
</mxfile>
